<mxfile host="app.diagrams.net" modified="2021-06-02T09:31:14.368Z" agent="5.0 (Windows NT 10.0; Win64; x64) AppleWebKit/537.36 (KHTML, like Gecko) Chrome/90.0.4430.212 Safari/537.36" etag="LFhFRCEmTnWarMG9nVL5" version="14.7.3" type="github">
  <diagram id="We45iD7lxRaqWA0gudP4" name="Page-1">
    <mxGraphModel dx="2249" dy="1931" grid="1" gridSize="10" guides="1" tooltips="1" connect="1" arrows="1" fold="1" page="1" pageScale="1" pageWidth="827" pageHeight="1169" math="0" shadow="0">
      <root>
        <mxCell id="0" />
        <mxCell id="1" parent="0" />
        <mxCell id="MZfn8W217P28bDWcbssV-5" value="Все для кухни" style="rounded=1;whiteSpace=wrap;html=1;" vertex="1" parent="1">
          <mxGeometry x="470" y="20" width="120" height="60" as="geometry" />
        </mxCell>
        <mxCell id="MZfn8W217P28bDWcbssV-6" value="Доммойки" style="rounded=1;whiteSpace=wrap;html=1;" vertex="1" parent="1">
          <mxGeometry x="470" y="110" width="120" height="60" as="geometry" />
        </mxCell>
        <mxCell id="MZfn8W217P28bDWcbssV-7" value="Санинвест" style="rounded=1;whiteSpace=wrap;html=1;" vertex="1" parent="1">
          <mxGeometry x="470" y="200" width="120" height="60" as="geometry" />
        </mxCell>
        <mxCell id="MZfn8W217P28bDWcbssV-8" value="Магазин 1&lt;br&gt;маркетплэйс" style="rounded=1;whiteSpace=wrap;html=1;" vertex="1" parent="1">
          <mxGeometry x="470" y="290" width="120" height="60" as="geometry" />
        </mxCell>
        <mxCell id="MZfn8W217P28bDWcbssV-9" value="Магазин N" style="rounded=1;whiteSpace=wrap;html=1;" vertex="1" parent="1">
          <mxGeometry x="470" y="390" width="120" height="60" as="geometry" />
        </mxCell>
        <mxCell id="MZfn8W217P28bDWcbssV-10" value="" style="endArrow=classic;startArrow=classic;html=1;entryX=0;entryY=0.5;entryDx=0;entryDy=0;exitX=0.996;exitY=0.105;exitDx=0;exitDy=0;exitPerimeter=0;" edge="1" parent="1" source="MZfn8W217P28bDWcbssV-46" target="MZfn8W217P28bDWcbssV-5">
          <mxGeometry width="50" height="50" relative="1" as="geometry">
            <mxPoint x="340" y="140" as="sourcePoint" />
            <mxPoint x="440" y="270" as="targetPoint" />
            <Array as="points">
              <mxPoint x="400" y="140" />
              <mxPoint x="400" y="50" />
            </Array>
          </mxGeometry>
        </mxCell>
        <mxCell id="MZfn8W217P28bDWcbssV-11" value="" style="endArrow=classic;startArrow=classic;html=1;entryX=0;entryY=0.5;entryDx=0;entryDy=0;exitX=0.998;exitY=0.113;exitDx=0;exitDy=0;exitPerimeter=0;" edge="1" parent="1" source="MZfn8W217P28bDWcbssV-46" target="MZfn8W217P28bDWcbssV-6">
          <mxGeometry width="50" height="50" relative="1" as="geometry">
            <mxPoint x="340" y="140" as="sourcePoint" />
            <mxPoint x="440" y="270" as="targetPoint" />
          </mxGeometry>
        </mxCell>
        <mxCell id="MZfn8W217P28bDWcbssV-13" value="" style="endArrow=classic;startArrow=classic;html=1;entryX=0;entryY=0.5;entryDx=0;entryDy=0;exitX=0.996;exitY=0.108;exitDx=0;exitDy=0;exitPerimeter=0;" edge="1" parent="1" source="MZfn8W217P28bDWcbssV-46" target="MZfn8W217P28bDWcbssV-7">
          <mxGeometry width="50" height="50" relative="1" as="geometry">
            <mxPoint x="340" y="140" as="sourcePoint" />
            <mxPoint x="440" y="270" as="targetPoint" />
            <Array as="points">
              <mxPoint x="400" y="140" />
              <mxPoint x="400" y="230" />
            </Array>
          </mxGeometry>
        </mxCell>
        <mxCell id="MZfn8W217P28bDWcbssV-14" value="" style="endArrow=classic;startArrow=classic;html=1;entryX=0;entryY=0.5;entryDx=0;entryDy=0;exitX=0.992;exitY=0.108;exitDx=0;exitDy=0;exitPerimeter=0;" edge="1" parent="1" source="MZfn8W217P28bDWcbssV-46" target="MZfn8W217P28bDWcbssV-8">
          <mxGeometry width="50" height="50" relative="1" as="geometry">
            <mxPoint x="340" y="140" as="sourcePoint" />
            <mxPoint x="440" y="270" as="targetPoint" />
            <Array as="points">
              <mxPoint x="400" y="140" />
              <mxPoint x="400" y="320" />
            </Array>
          </mxGeometry>
        </mxCell>
        <mxCell id="MZfn8W217P28bDWcbssV-15" value="" style="endArrow=classic;startArrow=classic;html=1;entryX=0;entryY=0.5;entryDx=0;entryDy=0;exitX=0.993;exitY=0.115;exitDx=0;exitDy=0;exitPerimeter=0;" edge="1" parent="1" source="MZfn8W217P28bDWcbssV-46" target="MZfn8W217P28bDWcbssV-9">
          <mxGeometry width="50" height="50" relative="1" as="geometry">
            <mxPoint x="340" y="140" as="sourcePoint" />
            <mxPoint x="440" y="270" as="targetPoint" />
            <Array as="points">
              <mxPoint x="400" y="140" />
              <mxPoint x="400" y="420" />
            </Array>
          </mxGeometry>
        </mxCell>
        <mxCell id="MZfn8W217P28bDWcbssV-17" value="Продавец 1" style="ellipse;whiteSpace=wrap;html=1;" vertex="1" parent="1">
          <mxGeometry x="680" y="-80" width="100" height="30" as="geometry" />
        </mxCell>
        <mxCell id="MZfn8W217P28bDWcbssV-18" value="Продавец 2" style="ellipse;whiteSpace=wrap;html=1;" vertex="1" parent="1">
          <mxGeometry x="680" y="-40" width="100" height="30" as="geometry" />
        </mxCell>
        <mxCell id="MZfn8W217P28bDWcbssV-19" value="Продавец N" style="ellipse;whiteSpace=wrap;html=1;" vertex="1" parent="1">
          <mxGeometry x="680" width="100" height="30" as="geometry" />
        </mxCell>
        <mxCell id="MZfn8W217P28bDWcbssV-21" value="" style="endArrow=classic;startArrow=classic;html=1;entryX=0;entryY=0.5;entryDx=0;entryDy=0;exitX=1;exitY=0.5;exitDx=0;exitDy=0;" edge="1" parent="1" source="MZfn8W217P28bDWcbssV-5" target="MZfn8W217P28bDWcbssV-17">
          <mxGeometry width="50" height="50" relative="1" as="geometry">
            <mxPoint x="390" y="320" as="sourcePoint" />
            <mxPoint x="440" y="270" as="targetPoint" />
            <Array as="points">
              <mxPoint x="640" y="50" />
              <mxPoint x="640" y="-65" />
            </Array>
          </mxGeometry>
        </mxCell>
        <mxCell id="MZfn8W217P28bDWcbssV-22" value="" style="endArrow=classic;startArrow=classic;html=1;entryX=0;entryY=0.5;entryDx=0;entryDy=0;exitX=1;exitY=0.5;exitDx=0;exitDy=0;" edge="1" parent="1" source="MZfn8W217P28bDWcbssV-5" target="MZfn8W217P28bDWcbssV-18">
          <mxGeometry width="50" height="50" relative="1" as="geometry">
            <mxPoint x="390" y="320" as="sourcePoint" />
            <mxPoint x="440" y="270" as="targetPoint" />
            <Array as="points">
              <mxPoint x="640" y="50" />
              <mxPoint x="640" y="-25" />
            </Array>
          </mxGeometry>
        </mxCell>
        <mxCell id="MZfn8W217P28bDWcbssV-23" value="" style="endArrow=classic;startArrow=classic;html=1;entryX=0;entryY=0.5;entryDx=0;entryDy=0;exitX=1;exitY=0.5;exitDx=0;exitDy=0;" edge="1" parent="1" source="MZfn8W217P28bDWcbssV-5" target="MZfn8W217P28bDWcbssV-19">
          <mxGeometry width="50" height="50" relative="1" as="geometry">
            <mxPoint x="390" y="320" as="sourcePoint" />
            <mxPoint x="440" y="270" as="targetPoint" />
            <Array as="points">
              <mxPoint x="640" y="50" />
              <mxPoint x="640" y="15" />
            </Array>
          </mxGeometry>
        </mxCell>
        <mxCell id="MZfn8W217P28bDWcbssV-24" value="Продавец Доммойки" style="ellipse;whiteSpace=wrap;html=1;" vertex="1" parent="1">
          <mxGeometry x="675" y="117.5" width="110" height="45" as="geometry" />
        </mxCell>
        <mxCell id="MZfn8W217P28bDWcbssV-25" value="" style="endArrow=classic;startArrow=classic;html=1;entryX=0;entryY=0.5;entryDx=0;entryDy=0;exitX=1;exitY=0.5;exitDx=0;exitDy=0;" edge="1" parent="1" source="MZfn8W217P28bDWcbssV-6" target="MZfn8W217P28bDWcbssV-24">
          <mxGeometry width="50" height="50" relative="1" as="geometry">
            <mxPoint x="390" y="110" as="sourcePoint" />
            <mxPoint x="440" y="60" as="targetPoint" />
          </mxGeometry>
        </mxCell>
        <mxCell id="MZfn8W217P28bDWcbssV-26" value="Продавец Санинвест" style="ellipse;whiteSpace=wrap;html=1;" vertex="1" parent="1">
          <mxGeometry x="675" y="207.5" width="110" height="45" as="geometry" />
        </mxCell>
        <mxCell id="MZfn8W217P28bDWcbssV-27" value="" style="endArrow=classic;startArrow=classic;html=1;entryX=0;entryY=0.5;entryDx=0;entryDy=0;exitX=1;exitY=0.5;exitDx=0;exitDy=0;" edge="1" parent="1">
          <mxGeometry width="50" height="50" relative="1" as="geometry">
            <mxPoint x="590" y="229.5" as="sourcePoint" />
            <mxPoint x="675" y="229.5" as="targetPoint" />
          </mxGeometry>
        </mxCell>
        <mxCell id="MZfn8W217P28bDWcbssV-28" value="Продавец 1" style="ellipse;whiteSpace=wrap;html=1;" vertex="1" parent="1">
          <mxGeometry x="900" y="280" width="100" height="30" as="geometry" />
        </mxCell>
        <mxCell id="MZfn8W217P28bDWcbssV-29" value="Продавец 2" style="ellipse;whiteSpace=wrap;html=1;" vertex="1" parent="1">
          <mxGeometry x="900" y="320" width="100" height="30" as="geometry" />
        </mxCell>
        <mxCell id="MZfn8W217P28bDWcbssV-30" value="Продавец N" style="ellipse;whiteSpace=wrap;html=1;" vertex="1" parent="1">
          <mxGeometry x="900" y="360" width="100" height="30" as="geometry" />
        </mxCell>
        <mxCell id="MZfn8W217P28bDWcbssV-31" value="" style="endArrow=classic;startArrow=classic;html=1;entryX=0;entryY=0.5;entryDx=0;entryDy=0;" edge="1" parent="1" target="MZfn8W217P28bDWcbssV-28">
          <mxGeometry width="50" height="50" relative="1" as="geometry">
            <mxPoint x="590" y="320" as="sourcePoint" />
            <mxPoint x="510" y="630" as="targetPoint" />
            <Array as="points">
              <mxPoint x="710" y="320" />
              <mxPoint x="710" y="295" />
            </Array>
          </mxGeometry>
        </mxCell>
        <mxCell id="MZfn8W217P28bDWcbssV-32" value="" style="endArrow=classic;startArrow=classic;html=1;entryX=0;entryY=0.5;entryDx=0;entryDy=0;" edge="1" parent="1" target="MZfn8W217P28bDWcbssV-29">
          <mxGeometry width="50" height="50" relative="1" as="geometry">
            <mxPoint x="590" y="320" as="sourcePoint" />
            <mxPoint x="510" y="630" as="targetPoint" />
            <Array as="points">
              <mxPoint x="710" y="320" />
              <mxPoint x="710" y="335" />
            </Array>
          </mxGeometry>
        </mxCell>
        <mxCell id="MZfn8W217P28bDWcbssV-33" value="" style="endArrow=classic;startArrow=classic;html=1;entryX=0;entryY=0.5;entryDx=0;entryDy=0;exitX=1;exitY=0.5;exitDx=0;exitDy=0;" edge="1" parent="1" target="MZfn8W217P28bDWcbssV-30" source="MZfn8W217P28bDWcbssV-8">
          <mxGeometry width="50" height="50" relative="1" as="geometry">
            <mxPoint x="660" y="410" as="sourcePoint" />
            <mxPoint x="510" y="630" as="targetPoint" />
            <Array as="points">
              <mxPoint x="710" y="320" />
              <mxPoint x="710" y="375" />
            </Array>
          </mxGeometry>
        </mxCell>
        <mxCell id="MZfn8W217P28bDWcbssV-34" value="Продавец 1" style="ellipse;whiteSpace=wrap;html=1;" vertex="1" parent="1">
          <mxGeometry x="900" y="430" width="100" height="30" as="geometry" />
        </mxCell>
        <mxCell id="MZfn8W217P28bDWcbssV-35" value="Продавец 2" style="ellipse;whiteSpace=wrap;html=1;" vertex="1" parent="1">
          <mxGeometry x="900" y="470" width="100" height="30" as="geometry" />
        </mxCell>
        <mxCell id="MZfn8W217P28bDWcbssV-36" value="Продавец N" style="ellipse;whiteSpace=wrap;html=1;" vertex="1" parent="1">
          <mxGeometry x="900" y="510" width="100" height="30" as="geometry" />
        </mxCell>
        <mxCell id="MZfn8W217P28bDWcbssV-37" value="" style="endArrow=classic;startArrow=classic;html=1;entryX=0;entryY=0.5;entryDx=0;entryDy=0;exitX=1;exitY=0.5;exitDx=0;exitDy=0;" edge="1" parent="1" target="MZfn8W217P28bDWcbssV-34" source="MZfn8W217P28bDWcbssV-9">
          <mxGeometry width="50" height="50" relative="1" as="geometry">
            <mxPoint x="590" y="470" as="sourcePoint" />
            <mxPoint x="510" y="780" as="targetPoint" />
            <Array as="points">
              <mxPoint x="670" y="420" />
              <mxPoint x="670" y="470" />
              <mxPoint x="710" y="470" />
              <mxPoint x="710" y="445" />
            </Array>
          </mxGeometry>
        </mxCell>
        <mxCell id="MZfn8W217P28bDWcbssV-38" value="" style="endArrow=classic;startArrow=classic;html=1;entryX=0;entryY=0.5;entryDx=0;entryDy=0;" edge="1" parent="1" target="MZfn8W217P28bDWcbssV-35">
          <mxGeometry width="50" height="50" relative="1" as="geometry">
            <mxPoint x="590" y="420" as="sourcePoint" />
            <mxPoint x="510" y="780" as="targetPoint" />
            <Array as="points">
              <mxPoint x="670" y="420" />
              <mxPoint x="670" y="470" />
              <mxPoint x="710" y="470" />
              <mxPoint x="710" y="485" />
            </Array>
          </mxGeometry>
        </mxCell>
        <mxCell id="MZfn8W217P28bDWcbssV-39" value="" style="endArrow=classic;startArrow=classic;html=1;entryX=0;entryY=0.5;entryDx=0;entryDy=0;exitX=1;exitY=0.5;exitDx=0;exitDy=0;" edge="1" parent="1" target="MZfn8W217P28bDWcbssV-36" source="MZfn8W217P28bDWcbssV-9">
          <mxGeometry width="50" height="50" relative="1" as="geometry">
            <mxPoint x="590" y="470" as="sourcePoint" />
            <mxPoint x="510" y="780" as="targetPoint" />
            <Array as="points">
              <mxPoint x="670" y="420" />
              <mxPoint x="670" y="470" />
              <mxPoint x="710" y="470" />
              <mxPoint x="710" y="525" />
            </Array>
          </mxGeometry>
        </mxCell>
        <mxCell id="MZfn8W217P28bDWcbssV-42" value="Б24" style="swimlane;fontStyle=0;childLayout=stackLayout;horizontal=1;startSize=26;fillColor=none;horizontalStack=0;resizeParent=1;resizeParentMax=0;resizeLast=0;collapsible=1;marginBottom=0;" vertex="1" parent="1">
          <mxGeometry x="-70" y="122.5" width="140" height="130" as="geometry" />
        </mxCell>
        <mxCell id="MZfn8W217P28bDWcbssV-43" value="Товары" style="text;strokeColor=none;fillColor=none;align=left;verticalAlign=top;spacingLeft=4;spacingRight=4;overflow=hidden;rotatable=0;points=[[0,0.5],[1,0.5]];portConstraint=eastwest;" vertex="1" parent="MZfn8W217P28bDWcbssV-42">
          <mxGeometry y="26" width="140" height="26" as="geometry" />
        </mxCell>
        <mxCell id="MZfn8W217P28bDWcbssV-44" value="Контрагенты" style="text;strokeColor=none;fillColor=none;align=left;verticalAlign=top;spacingLeft=4;spacingRight=4;overflow=hidden;rotatable=0;points=[[0,0.5],[1,0.5]];portConstraint=eastwest;" vertex="1" parent="MZfn8W217P28bDWcbssV-42">
          <mxGeometry y="52" width="140" height="26" as="geometry" />
        </mxCell>
        <mxCell id="MZfn8W217P28bDWcbssV-45" value="Цены" style="text;strokeColor=none;fillColor=none;align=left;verticalAlign=top;spacingLeft=4;spacingRight=4;overflow=hidden;rotatable=0;points=[[0,0.5],[1,0.5]];portConstraint=eastwest;" vertex="1" parent="MZfn8W217P28bDWcbssV-42">
          <mxGeometry y="78" width="140" height="26" as="geometry" />
        </mxCell>
        <mxCell id="MZfn8W217P28bDWcbssV-52" value="Заказы" style="text;strokeColor=none;fillColor=none;align=left;verticalAlign=top;spacingLeft=4;spacingRight=4;overflow=hidden;rotatable=0;points=[[0,0.5],[1,0.5]];portConstraint=eastwest;" vertex="1" parent="MZfn8W217P28bDWcbssV-42">
          <mxGeometry y="104" width="140" height="26" as="geometry" />
        </mxCell>
        <mxCell id="MZfn8W217P28bDWcbssV-46" value="Cs-cart" style="swimlane;fontStyle=0;childLayout=stackLayout;horizontal=1;startSize=26;fillColor=none;horizontalStack=0;resizeParent=1;resizeParentMax=0;resizeLast=0;collapsible=1;marginBottom=0;" vertex="1" parent="1">
          <mxGeometry x="210" y="122.5" width="140" height="130" as="geometry" />
        </mxCell>
        <mxCell id="MZfn8W217P28bDWcbssV-47" value="Товары" style="text;strokeColor=none;fillColor=none;align=left;verticalAlign=top;spacingLeft=4;spacingRight=4;overflow=hidden;rotatable=0;points=[[0,0.5],[1,0.5]];portConstraint=eastwest;" vertex="1" parent="MZfn8W217P28bDWcbssV-46">
          <mxGeometry y="26" width="140" height="26" as="geometry" />
        </mxCell>
        <mxCell id="MZfn8W217P28bDWcbssV-48" value="Контрагенты" style="text;strokeColor=none;fillColor=none;align=left;verticalAlign=top;spacingLeft=4;spacingRight=4;overflow=hidden;rotatable=0;points=[[0,0.5],[1,0.5]];portConstraint=eastwest;" vertex="1" parent="MZfn8W217P28bDWcbssV-46">
          <mxGeometry y="52" width="140" height="26" as="geometry" />
        </mxCell>
        <mxCell id="MZfn8W217P28bDWcbssV-49" value="Цены" style="text;strokeColor=none;fillColor=none;align=left;verticalAlign=top;spacingLeft=4;spacingRight=4;overflow=hidden;rotatable=0;points=[[0,0.5],[1,0.5]];portConstraint=eastwest;" vertex="1" parent="MZfn8W217P28bDWcbssV-46">
          <mxGeometry y="78" width="140" height="26" as="geometry" />
        </mxCell>
        <mxCell id="MZfn8W217P28bDWcbssV-54" value="Заказы" style="text;strokeColor=none;fillColor=none;align=left;verticalAlign=top;spacingLeft=4;spacingRight=4;overflow=hidden;rotatable=0;points=[[0,0.5],[1,0.5]];portConstraint=eastwest;" vertex="1" parent="MZfn8W217P28bDWcbssV-46">
          <mxGeometry y="104" width="140" height="26" as="geometry" />
        </mxCell>
        <mxCell id="MZfn8W217P28bDWcbssV-55" value="" style="endArrow=classic;startArrow=classic;html=1;entryX=1.009;entryY=0.09;entryDx=0;entryDy=0;entryPerimeter=0;" edge="1" parent="1" target="MZfn8W217P28bDWcbssV-42">
          <mxGeometry width="50" height="50" relative="1" as="geometry">
            <mxPoint x="209" y="134" as="sourcePoint" />
            <mxPoint x="310" y="210" as="targetPoint" />
          </mxGeometry>
        </mxCell>
        <mxCell id="MZfn8W217P28bDWcbssV-62" value="Продавец Санинвест" style="ellipse;whiteSpace=wrap;html=1;" vertex="1" parent="1">
          <mxGeometry x="450" y="680" width="110" height="45" as="geometry" />
        </mxCell>
        <mxCell id="MZfn8W217P28bDWcbssV-63" value="Товары Cs-cart" style="shape=table;html=1;whiteSpace=wrap;startSize=30;container=1;collapsible=0;childLayout=tableLayout;fontStyle=1;align=center;" vertex="1" parent="1">
          <mxGeometry x="-250" y="840" width="320" height="214" as="geometry" />
        </mxCell>
        <mxCell id="MZfn8W217P28bDWcbssV-64" value="" style="shape=partialRectangle;html=1;whiteSpace=wrap;collapsible=0;dropTarget=0;pointerEvents=0;fillColor=none;top=0;left=0;bottom=0;right=0;points=[[0,0.5],[1,0.5]];portConstraint=eastwest;" vertex="1" parent="MZfn8W217P28bDWcbssV-63">
          <mxGeometry y="30" width="320" height="37" as="geometry" />
        </mxCell>
        <mxCell id="MZfn8W217P28bDWcbssV-65" value="Товар 1" style="shape=partialRectangle;html=1;whiteSpace=wrap;connectable=0;fillColor=none;top=0;left=0;bottom=0;right=0;overflow=hidden;" vertex="1" parent="MZfn8W217P28bDWcbssV-64">
          <mxGeometry width="320" height="37" as="geometry" />
        </mxCell>
        <mxCell id="MZfn8W217P28bDWcbssV-68" value="" style="shape=partialRectangle;html=1;whiteSpace=wrap;collapsible=0;dropTarget=0;pointerEvents=0;fillColor=none;top=0;left=0;bottom=0;right=0;points=[[0,0.5],[1,0.5]];portConstraint=eastwest;" vertex="1" parent="MZfn8W217P28bDWcbssV-63">
          <mxGeometry y="67" width="320" height="36" as="geometry" />
        </mxCell>
        <mxCell id="MZfn8W217P28bDWcbssV-69" value="&lt;span&gt;Товар 2&lt;/span&gt;" style="shape=partialRectangle;html=1;whiteSpace=wrap;connectable=0;fillColor=none;top=0;left=0;bottom=0;right=0;overflow=hidden;" vertex="1" parent="MZfn8W217P28bDWcbssV-68">
          <mxGeometry width="320" height="36" as="geometry" />
        </mxCell>
        <mxCell id="MZfn8W217P28bDWcbssV-72" value="" style="shape=partialRectangle;html=1;whiteSpace=wrap;collapsible=0;dropTarget=0;pointerEvents=0;fillColor=none;top=0;left=0;bottom=0;right=0;points=[[0,0.5],[1,0.5]];portConstraint=eastwest;" vertex="1" parent="MZfn8W217P28bDWcbssV-63">
          <mxGeometry y="103" width="320" height="37" as="geometry" />
        </mxCell>
        <mxCell id="MZfn8W217P28bDWcbssV-73" value="&lt;span&gt;Товар 3&lt;/span&gt;" style="shape=partialRectangle;html=1;whiteSpace=wrap;connectable=0;fillColor=none;top=0;left=0;bottom=0;right=0;overflow=hidden;" vertex="1" parent="MZfn8W217P28bDWcbssV-72">
          <mxGeometry width="320" height="37" as="geometry" />
        </mxCell>
        <mxCell id="MZfn8W217P28bDWcbssV-76" style="shape=partialRectangle;html=1;whiteSpace=wrap;collapsible=0;dropTarget=0;pointerEvents=0;fillColor=none;top=0;left=0;bottom=0;right=0;points=[[0,0.5],[1,0.5]];portConstraint=eastwest;" vertex="1" parent="MZfn8W217P28bDWcbssV-63">
          <mxGeometry y="140" width="320" height="37" as="geometry" />
        </mxCell>
        <mxCell id="MZfn8W217P28bDWcbssV-77" value="&lt;span&gt;Товар ...&lt;/span&gt;" style="shape=partialRectangle;html=1;whiteSpace=wrap;connectable=0;fillColor=none;top=0;left=0;bottom=0;right=0;overflow=hidden;" vertex="1" parent="MZfn8W217P28bDWcbssV-76">
          <mxGeometry width="320" height="37" as="geometry" />
        </mxCell>
        <mxCell id="MZfn8W217P28bDWcbssV-78" style="shape=partialRectangle;html=1;whiteSpace=wrap;collapsible=0;dropTarget=0;pointerEvents=0;fillColor=none;top=0;left=0;bottom=0;right=0;points=[[0,0.5],[1,0.5]];portConstraint=eastwest;" vertex="1" parent="MZfn8W217P28bDWcbssV-63">
          <mxGeometry y="177" width="320" height="37" as="geometry" />
        </mxCell>
        <mxCell id="MZfn8W217P28bDWcbssV-79" value="&lt;span&gt;Товар N&lt;/span&gt;" style="shape=partialRectangle;html=1;whiteSpace=wrap;connectable=0;fillColor=none;top=0;left=0;bottom=0;right=0;overflow=hidden;" vertex="1" parent="MZfn8W217P28bDWcbssV-78">
          <mxGeometry width="320" height="37" as="geometry" />
        </mxCell>
        <mxCell id="MZfn8W217P28bDWcbssV-80" value="Продавец Доммойки" style="ellipse;whiteSpace=wrap;html=1;" vertex="1" parent="1">
          <mxGeometry x="450" y="760" width="110" height="45" as="geometry" />
        </mxCell>
        <mxCell id="MZfn8W217P28bDWcbssV-85" value="ВсеДляКухни" style="swimlane;" vertex="1" parent="1">
          <mxGeometry x="440" y="842" width="350" height="210" as="geometry" />
        </mxCell>
        <mxCell id="MZfn8W217P28bDWcbssV-83" value="&lt;span&gt;Продавец 1&lt;/span&gt;&lt;br&gt;&lt;span&gt;Все для кухни&lt;/span&gt;" style="ellipse;whiteSpace=wrap;html=1;" vertex="1" parent="MZfn8W217P28bDWcbssV-85">
          <mxGeometry x="20" y="35" width="110" height="60" as="geometry" />
        </mxCell>
        <mxCell id="MZfn8W217P28bDWcbssV-86" value="&lt;span&gt;Продавец 2&lt;/span&gt;&lt;br&gt;&lt;span&gt;Все для кухни&lt;/span&gt;" style="ellipse;whiteSpace=wrap;html=1;" vertex="1" parent="MZfn8W217P28bDWcbssV-85">
          <mxGeometry x="20" y="114" width="110" height="60" as="geometry" />
        </mxCell>
        <mxCell id="MZfn8W217P28bDWcbssV-87" value="Вывод товаров &lt;b&gt;с наценкой&lt;/b&gt; на витрине только того продавца, под чьим аккаунтом авторизован пользователь" style="rounded=0;whiteSpace=wrap;html=1;" vertex="1" parent="MZfn8W217P28bDWcbssV-85">
          <mxGeometry x="220" y="35" width="120" height="115" as="geometry" />
        </mxCell>
        <mxCell id="MZfn8W217P28bDWcbssV-88" value="Магазин 1 (маркетплэйс)" style="swimlane;" vertex="1" parent="1">
          <mxGeometry x="440" y="1100" width="350" height="190" as="geometry" />
        </mxCell>
        <mxCell id="MZfn8W217P28bDWcbssV-89" value="&lt;span&gt;Продавец 1&lt;/span&gt;" style="ellipse;whiteSpace=wrap;html=1;" vertex="1" parent="MZfn8W217P28bDWcbssV-88">
          <mxGeometry x="20" y="35" width="110" height="60" as="geometry" />
        </mxCell>
        <mxCell id="MZfn8W217P28bDWcbssV-90" value="&lt;span&gt;Продавец 2&lt;/span&gt;" style="ellipse;whiteSpace=wrap;html=1;" vertex="1" parent="MZfn8W217P28bDWcbssV-88">
          <mxGeometry x="20" y="114" width="110" height="60" as="geometry" />
        </mxCell>
        <mxCell id="MZfn8W217P28bDWcbssV-91" value="Вывод товаров на витрине всех продавцов" style="rounded=0;whiteSpace=wrap;html=1;" vertex="1" parent="MZfn8W217P28bDWcbssV-88">
          <mxGeometry x="220" y="35" width="120" height="55" as="geometry" />
        </mxCell>
        <mxCell id="MZfn8W217P28bDWcbssV-93" value="" style="endArrow=classic;html=1;exitX=1;exitY=0.5;exitDx=0;exitDy=0;entryX=0;entryY=0.5;entryDx=0;entryDy=0;" edge="1" parent="1" source="MZfn8W217P28bDWcbssV-64" target="MZfn8W217P28bDWcbssV-80">
          <mxGeometry width="50" height="50" relative="1" as="geometry">
            <mxPoint x="290" y="1050" as="sourcePoint" />
            <mxPoint x="340" y="1000" as="targetPoint" />
            <Array as="points">
              <mxPoint x="380" y="889" />
              <mxPoint x="380" y="783" />
            </Array>
          </mxGeometry>
        </mxCell>
        <mxCell id="MZfn8W217P28bDWcbssV-94" value="" style="endArrow=classic;html=1;entryX=0;entryY=0.5;entryDx=0;entryDy=0;exitX=1;exitY=0.5;exitDx=0;exitDy=0;" edge="1" parent="1" source="MZfn8W217P28bDWcbssV-64" target="MZfn8W217P28bDWcbssV-62">
          <mxGeometry width="50" height="50" relative="1" as="geometry">
            <mxPoint x="290" y="1050" as="sourcePoint" />
            <mxPoint x="340" y="1000" as="targetPoint" />
            <Array as="points">
              <mxPoint x="380" y="889" />
              <mxPoint x="380" y="703" />
            </Array>
          </mxGeometry>
        </mxCell>
        <mxCell id="MZfn8W217P28bDWcbssV-95" value="" style="endArrow=classic;html=1;exitX=1;exitY=0.5;exitDx=0;exitDy=0;entryX=0;entryY=0.5;entryDx=0;entryDy=0;" edge="1" parent="1" source="MZfn8W217P28bDWcbssV-64" target="MZfn8W217P28bDWcbssV-83">
          <mxGeometry width="50" height="50" relative="1" as="geometry">
            <mxPoint x="290" y="1050" as="sourcePoint" />
            <mxPoint x="340" y="1000" as="targetPoint" />
            <Array as="points">
              <mxPoint x="380" y="889" />
              <mxPoint x="380" y="907" />
            </Array>
          </mxGeometry>
        </mxCell>
        <mxCell id="MZfn8W217P28bDWcbssV-96" value="" style="endArrow=classic;html=1;entryX=0;entryY=0.5;entryDx=0;entryDy=0;" edge="1" parent="1" target="MZfn8W217P28bDWcbssV-86">
          <mxGeometry width="50" height="50" relative="1" as="geometry">
            <mxPoint x="310" y="890" as="sourcePoint" />
            <mxPoint x="340" y="1000" as="targetPoint" />
            <Array as="points">
              <mxPoint x="380" y="890" />
              <mxPoint x="380" y="986" />
            </Array>
          </mxGeometry>
        </mxCell>
        <mxCell id="MZfn8W217P28bDWcbssV-97" value="" style="endArrow=classic;html=1;exitX=1;exitY=0.5;exitDx=0;exitDy=0;entryX=0;entryY=0.5;entryDx=0;entryDy=0;" edge="1" parent="1" source="MZfn8W217P28bDWcbssV-64" target="MZfn8W217P28bDWcbssV-89">
          <mxGeometry width="50" height="50" relative="1" as="geometry">
            <mxPoint x="370" y="1054" as="sourcePoint" />
            <mxPoint x="396" y="1165" as="targetPoint" />
            <Array as="points">
              <mxPoint x="380" y="889" />
              <mxPoint x="380" y="1165" />
            </Array>
          </mxGeometry>
        </mxCell>
        <mxCell id="MZfn8W217P28bDWcbssV-98" value="" style="endArrow=classic;html=1;exitX=1;exitY=0.5;exitDx=0;exitDy=0;entryX=0;entryY=0.5;entryDx=0;entryDy=0;" edge="1" parent="1" source="MZfn8W217P28bDWcbssV-64" target="MZfn8W217P28bDWcbssV-90">
          <mxGeometry width="50" height="50" relative="1" as="geometry">
            <mxPoint x="280" y="1120" as="sourcePoint" />
            <mxPoint x="430" y="1396.5" as="targetPoint" />
            <Array as="points">
              <mxPoint x="380" y="889" />
              <mxPoint x="380" y="1244" />
            </Array>
          </mxGeometry>
        </mxCell>
        <mxCell id="MZfn8W217P28bDWcbssV-100" value="" style="endArrow=classic;html=1;exitX=1;exitY=0.5;exitDx=0;exitDy=0;entryX=0;entryY=1;entryDx=0;entryDy=0;" edge="1" parent="1" source="MZfn8W217P28bDWcbssV-68" target="MZfn8W217P28bDWcbssV-86">
          <mxGeometry width="50" height="50" relative="1" as="geometry">
            <mxPoint x="290" y="1050" as="sourcePoint" />
            <mxPoint x="340" y="1000" as="targetPoint" />
            <Array as="points">
              <mxPoint x="120" y="925" />
              <mxPoint x="120" y="1240" />
              <mxPoint x="280" y="1240" />
              <mxPoint x="280" y="1007" />
            </Array>
          </mxGeometry>
        </mxCell>
        <mxCell id="MZfn8W217P28bDWcbssV-101" value="" style="endArrow=classic;html=1;exitX=1;exitY=0.5;exitDx=0;exitDy=0;entryX=0;entryY=1;entryDx=0;entryDy=0;" edge="1" parent="1" source="MZfn8W217P28bDWcbssV-68" target="MZfn8W217P28bDWcbssV-90">
          <mxGeometry width="50" height="50" relative="1" as="geometry">
            <mxPoint x="290" y="1050" as="sourcePoint" />
            <mxPoint x="340" y="1000" as="targetPoint" />
            <Array as="points">
              <mxPoint x="120" y="925" />
              <mxPoint x="120" y="1265" />
            </Array>
          </mxGeometry>
        </mxCell>
        <mxCell id="MZfn8W217P28bDWcbssV-103" value="1С" style="swimlane;fontStyle=0;childLayout=stackLayout;horizontal=1;startSize=26;fillColor=none;horizontalStack=0;resizeParent=1;resizeParentMax=0;resizeLast=0;collapsible=1;marginBottom=0;" vertex="1" parent="1">
          <mxGeometry x="-310" y="122.5" width="140" height="130" as="geometry" />
        </mxCell>
        <mxCell id="MZfn8W217P28bDWcbssV-104" value="Товары" style="text;strokeColor=none;fillColor=none;align=left;verticalAlign=top;spacingLeft=4;spacingRight=4;overflow=hidden;rotatable=0;points=[[0,0.5],[1,0.5]];portConstraint=eastwest;" vertex="1" parent="MZfn8W217P28bDWcbssV-103">
          <mxGeometry y="26" width="140" height="26" as="geometry" />
        </mxCell>
        <mxCell id="MZfn8W217P28bDWcbssV-105" value="Контрагенты" style="text;strokeColor=none;fillColor=none;align=left;verticalAlign=top;spacingLeft=4;spacingRight=4;overflow=hidden;rotatable=0;points=[[0,0.5],[1,0.5]];portConstraint=eastwest;" vertex="1" parent="MZfn8W217P28bDWcbssV-103">
          <mxGeometry y="52" width="140" height="26" as="geometry" />
        </mxCell>
        <mxCell id="MZfn8W217P28bDWcbssV-106" value="Цены" style="text;strokeColor=none;fillColor=none;align=left;verticalAlign=top;spacingLeft=4;spacingRight=4;overflow=hidden;rotatable=0;points=[[0,0.5],[1,0.5]];portConstraint=eastwest;" vertex="1" parent="MZfn8W217P28bDWcbssV-103">
          <mxGeometry y="78" width="140" height="26" as="geometry" />
        </mxCell>
        <mxCell id="MZfn8W217P28bDWcbssV-107" value="Заказы" style="text;strokeColor=none;fillColor=none;align=left;verticalAlign=top;spacingLeft=4;spacingRight=4;overflow=hidden;rotatable=0;points=[[0,0.5],[1,0.5]];portConstraint=eastwest;" vertex="1" parent="MZfn8W217P28bDWcbssV-103">
          <mxGeometry y="104" width="140" height="26" as="geometry" />
        </mxCell>
        <mxCell id="MZfn8W217P28bDWcbssV-108" value="" style="endArrow=classic;startArrow=classic;html=1;entryX=1.009;entryY=0.09;entryDx=0;entryDy=0;entryPerimeter=0;" edge="1" parent="1">
          <mxGeometry width="50" height="50" relative="1" as="geometry">
            <mxPoint x="209" y="134" as="sourcePoint" />
            <mxPoint x="71.26000000000022" y="134.19999999999982" as="targetPoint" />
          </mxGeometry>
        </mxCell>
        <mxCell id="MZfn8W217P28bDWcbssV-109" value="" style="endArrow=classic;startArrow=classic;html=1;entryX=0.993;entryY=0.088;entryDx=0;entryDy=0;entryPerimeter=0;" edge="1" parent="1" target="MZfn8W217P28bDWcbssV-103">
          <mxGeometry width="50" height="50" relative="1" as="geometry">
            <mxPoint x="-70" y="134" as="sourcePoint" />
            <mxPoint x="-189.99999999999977" y="70.19999999999982" as="targetPoint" />
          </mxGeometry>
        </mxCell>
      </root>
    </mxGraphModel>
  </diagram>
</mxfile>
